<svg width="171" height="21.522" viewBox="0 0 171 21.522" fill="none" xmlns="http://www.w3.org/2000/svg"><g clip-path="url(#clip0_28_227)" transform="translate(0 -.027)" fill="#fff"><path d="M27.3 21.516H.405c-.271 0-.405-.092-.405-.28 0-.043 3.076-6.975 9.224-20.8.104-.27.355-.406.75-.406H36.84c1.333 0 2.449.26 3.347.782 1.062.647 1.595 1.597 1.595 2.85 0 1.317-.573 2.59-1.72 3.822-.957 1.003-2.137 1.827-3.534 2.474.814.71 1.22 1.63 1.22 2.755 0 .733-.188 1.505-.563 2.32-.814 1.818-2.168 3.352-4.065 4.606-1.896 1.253-3.836 1.88-5.816 1.88zm1.595-16.382c0-.94-.78-1.408-2.345-1.408h-6.41L13.885 17.82h6.41c1.105 0 2.147-.459 3.125-1.38.979-.94 1.471-1.963 1.471-3.068s-.626-1.693-1.876-1.693h-4.034c-.291 0-.439-.092-.439-.28a.541.541 0 00.03-.125l1.284-2.914c.124-.27.385-.406.78-.406h4.034c.814 0 1.595-.178 2.346-.53.834-.397 1.407-.931 1.719-1.598.103-.25.157-.481.157-.69zM72.249.182c-.084-.102-.218-.155-.406-.155H68.53a.912.912 0 00-.532.155L36.41 20.856c-.228.145-.345.28-.345.406 0 .168.167.25.499.25H65.55a.138.138 0 00.11-.224l-2.3-3.418a.145.145 0 00-.11-.056H45.635l15.45-10.241 8.912 13.781c.064.106.187.155.375.155h14.009c.5 0 .75-.155.75-.468 0-.063-4.295-7.018-12.883-20.862zm36.162 21.334H92.335c-1.856 0-3.324-.482-4.41-1.442-1.085-.96-1.624-2.359-1.624-4.197 0-1.607.429-3.372 1.283-5.292L92.087.436c.124-.27.375-.406.75-.406h11.604c.291 0 .439.093.439.28a.288.288 0 00-.03.126l-5.16 11.62c-.835 1.881-1.25 3.227-1.25 4.042 0 1.148.647 1.723 1.94 1.723h9.851c2.834 0 5.387-2.548 7.662-7.642l4.316-9.743c.124-.27.375-.406.75-.406h4.065c.271 0 .405.093.405.28 0 .063-1.511 3.488-4.533 10.275a20.228 20.228 0 01-5.753 7.55c-2.795 2.256-5.703 3.38-8.725 3.38zm52.614 0h-11.227c-.292 0-.439-.093-.439-.28 0-.044 1.249-2.881 3.752-8.52l-13.543 8.645c-.187.125-.646.188-1.377.188-.898 0-1.397-.053-1.501-.155l-7.006-8.678-3.722 8.394c-.124.27-.376.406-.751.406h-4.316c-.291 0-.438-.093-.438-.28 0-.044 3.075-6.976 9.224-20.8.124-.27.375-.406.75-.406h4.597c.188 0 .322.053.406.155l8.537 13.845L165.967.181a.832.832 0 01.5-.155h4.097c.292 0 .439.092.439.28 0 .043-3.075 6.975-9.224 20.8-.124.27-.375.406-.75.406z"/></g><defs id="defs4"><clipPath id="clip0_28_227"><path fill="#fff" transform="translate(0 .027)" id="rect4" d="M0 0h171v35H0z"/></clipPath></defs></svg>